<?xml version="1.0" encoding="utf-8"?>
<!-- Generator: Adobe Illustrator 19.1.0, SVG Export Plug-In . SVG Version: 6.00 Build 0)  -->
<svg version="1.1" id="Isolation_Mode" xmlns="http://www.w3.org/2000/svg" xmlns:xlink="http://www.w3.org/1999/xlink" x="0px"
	 y="0px" viewBox="681.3 85.3 14 14" style="enable-background:new 681.3 85.3 14 14;" xml:space="preserve">
<style type="text/css">
	.st0{fill:#FFFFFF;}
	.st1{fill:#464646;}
	.st2{fill:#323232;}
	.st3{fill:#264A60;}
	.st4{fill:#999999;}
	.st5{fill:#00CE66;}
	.st6{fill:none;stroke:#999999;stroke-width:2;stroke-miterlimit:10;}
	.st7{fill:#DFDFDF;}
	.st8{fill:none;stroke:#999999;stroke-width:1.9274;stroke-miterlimit:10;}
	.st9{fill:#666666;}
	.st10{fill:#333333;}
	.st11{fill:none;stroke:#999999;stroke-width:1.25;stroke-miterlimit:10;}
	.st12{fill:#959595;}
	.st13{fill:#AEAEAE;}
	.st14{fill:#7CC7FF;}
	.st15{fill:#777677;}
	.st16{fill:#5A5A5A;}
	.st17{fill:none;stroke:#FFFFFF;stroke-width:6;stroke-miterlimit:10;}
</style>
<g>
	<polygon class="st9" points="691.9,91.8 684.8,91.8 684.8,92.8 691.9,92.8 	"/>
	<path class="st9" d="M693.3,87.4c-2.7-2.7-7.2-2.7-9.9,0c-2.7,2.7-2.7,7.2,0,9.9c2.7,2.7,7.2,2.7,9.9,0
		C696,94.6,696,90.1,693.3,87.4z M683.7,96.9c-2.5-2.5-2.5-6.7,0-9.2c2.5-2.5,6.7-2.5,9.2,0c2.5,2.5,2.5,6.7,0,9.2
		C690.4,99.5,686.3,99.5,683.7,96.9z"/>
</g>
</svg>
