<?xml version="1.0" encoding="utf-8"?>
<!-- Generator: Adobe Illustrator 19.1.0, SVG Export Plug-In . SVG Version: 6.00 Build 0)  -->
<svg version="1.1" id="Isolation_Mode" xmlns="http://www.w3.org/2000/svg" xmlns:xlink="http://www.w3.org/1999/xlink" x="0px"
	 y="0px" viewBox="698.5 85.3 14 14" style="enable-background:new 698.5 85.3 14 14;" xml:space="preserve">
<style type="text/css">
	.st0{fill:#FFFFFF;}
	.st1{fill:#464646;}
	.st2{fill:#323232;}
	.st3{fill:#264A60;}
	.st4{fill:#999999;}
	.st5{fill:#00CE66;}
	.st6{fill:none;stroke:#999999;stroke-width:2;stroke-miterlimit:10;}
	.st7{fill:#DFDFDF;}
	.st8{fill:none;stroke:#999999;stroke-width:1.9274;stroke-miterlimit:10;}
	.st9{fill:#666666;}
	.st10{fill:#333333;}
	.st11{fill:none;stroke:#999999;stroke-width:1.25;stroke-miterlimit:10;}
	.st12{fill:#959595;}
	.st13{fill:#AEAEAE;}
	.st14{fill:#7CC7FF;}
	.st15{fill:#777677;}
	.st16{fill:#5A5A5A;}
	.st17{fill:none;stroke:#FFFFFF;stroke-width:6;stroke-miterlimit:10;}
</style>
<g>
	<polygon class="st9" points="709.1,91.8 706,91.8 706,88.8 705,88.8 705,91.8 701.9,91.8 701.9,92.8 705,92.8 705,95.9 706,95.9 
		706,92.8 709.1,92.8 	"/>
	<path class="st9" d="M710.5,87.4c-2.7-2.7-7.2-2.7-9.9,0c-2.7,2.7-2.7,7.2,0,9.9s7.2,2.7,9.9,0S713.2,90.1,710.5,87.4z M700.9,96.9
		c-2.5-2.5-2.5-6.7,0-9.2c2.5-2.5,6.7-2.5,9.2,0c2.5,2.5,2.5,6.7,0,9.2C707.6,99.5,703.4,99.5,700.9,96.9z"/>
</g>
</svg>
