<?xml version="1.0" encoding="UTF-8"?>
<!-- Generator: Adobe Illustrator 19.1.0, SVG Export Plug-In . SVG Version: 6.00 Build 0)  -->
<svg version="1.1" id="Isolation_Mode" xmlns="http://www.w3.org/2000/svg" xmlns:xlink="http://www.w3.org/1999/xlink" x="0px" y="0px" viewBox="0 0 20 20" style="enable-background:new 0 0 20 20;" xml:space="preserve">
<style type="text/css">
	.st0{fill:#00C853;}
</style>
<g>
	<path class="st0" d="M19.6,3.3L19.4,3l-3,3c-0.6,0.6-1.8,0.6-2.4,0c-0.7-0.7-0.7-1.7,0-2.4l3-3l-0.3-0.1C16,0.1,15.3,0,14.6,0   c-3,0-5.4,2.4-5.4,5.4c0,0.5,0.1,1.1,0.3,1.6l-8.6,8.6c-1,1-1,2.6,0,3.6C1.2,19.7,1.8,20,2.5,20s1.3-0.3,1.8-0.7l8.6-8.6   c0.5,0.2,1.1,0.3,1.6,0.3c3,0,5.4-2.4,5.4-5.4C20,4.7,19.9,4,19.6,3.3z M10.7,7.4l-0.2-0.5c-0.2-0.5-0.2-0.9-0.2-1.4   c0-2.4,1.9-4.3,4.3-4.3c0.1,0,0.2,0,0.3,0l-1.6,1.6c-0.5,0.5-0.8,1.3-0.8,2c0,0.8,0.3,1.5,0.8,2c0.5,0.5,1.3,0.8,2,0.8   s1.5-0.3,2-0.8l1.6-1.6c0,0.1,0,0.2,0,0.3c0,2.4-1.9,4.3-4.3,4.3c-0.5,0-0.9-0.1-1.4-0.2l-0.5-0.2l-9.1,9.1c-0.5,0.5-1.4,0.5-2,0   c-0.3-0.3-0.4-0.6-0.4-1c0-0.4,0.1-0.7,0.4-1L10.7,7.4z"/>
	<circle class="st0" cx="2.5" cy="17.5" r="0.7"/>
</g>
</svg>